<?xml version="1.0" encoding="UTF-8"?>
<!DOCTYPE svg PUBLIC "-//W3C//DTD SVG 1.1//EN" "http://www.w3.org/Graphics/SVG/1.1/DTD/svg11.dtd">
<!-- Creator: CorelDRAW X8 -->
<svg xmlns="http://www.w3.org/2000/svg" xml:space="preserve" width="196.658mm" height="147.84mm" version="1.1" style="shape-rendering:geometricPrecision; text-rendering:geometricPrecision; image-rendering:optimizeQuality; fill-rule:evenodd; clip-rule:evenodd"
viewBox="0 0 1984 1491"
 xmlns:xlink="http://www.w3.org/1999/xlink">
 <defs>
  <style type="text/css">
   <![CDATA[
    .str0 {stroke:#FEFEFE;stroke-width:25.2177}
    .fil0 {fill:#ED1C24}
    .fil1 {fill:#FEFEFE}
   ]]>
  </style>
 </defs>
 <g id="Layer_x0020_1">
  <metadata id="CorelCorpID_0Corel-Layer"/>
  <path id="path14" class="fil0 str0" d="M1966 446c-248,-268 -593,-433 -974,-433 -381,0 -726,165 -975,433l975 1027 974 -1027z"/>
  <g>
   <path id="path16" class="fil1" d="M808 700c-9,3 -10,2 -16,8 -14,16 1,36 34,30 35,-6 23,-47 -18,-38l0 0zm0 0l0 0 0 0z"/>
  </g>
  <path id="path18" class="fil1" d="M1430 356c19,0 43,-6 43,-28 0,-14 -2,-18 -13,-23 -7,-3 -23,-4 -32,-4 -14,0 -19,1 -27,8 -24,18 -14,47 29,47l0 0z"/>
  <path id="path20" class="fil1" d="M1033 303c-11,3 -16,6 -22,13 -22,25 17,49 52,40 11,-3 17,-6 23,-12 5,-6 7,-21 3,-29 -9,-14 -42,-17 -56,-12l0 0z"/>
  <g>
   <path id="path22" class="fil1" d="M793 791c-1,23 -3,88 -1,110 1,12 8,19 22,19 15,0 16,-10 16,-24 1,-14 1,-26 2,-40 1,-51 20,-93 -24,-91 -14,1 -14,12 -15,26l0 0zm0 0l0 0 0 0z"/>
  </g>
  <g>
   <path id="path24" class="fil1" d="M1401 422l0 145c0,18 -7,48 28,49 29,1 25,-26 25,-53l5 -99c1,-8 1,-44 0,-51 -4,-15 -18,-18 -32,-19 -19,0 -26,10 -26,28l0 0zm0 0l0 0 0 0z"/>
  </g>
  <g>
   <path id="path26" class="fil1" d="M1013 475l0 98c0,22 -1,35 18,41 18,5 35,2 36,-19 1,-39 4,-75 5,-113 2,-55 17,-80 -23,-87 -21,-3 -33,3 -34,23 0,19 -2,36 -2,57l0 0 0 0zm0 0l0 0 0 0z"/>
  </g>
  <g>
   <path id="path28" class="fil1" d="M861 765c-1,23 7,19 48,19l48 0c18,0 5,7 -1,11l-31 25c-15,10 -68,47 -77,57 -7,8 -4,17 2,21 15,10 37,3 55,3 10,-1 20,-1 30,-2 27,-4 104,6 84,-22 -14,-21 -79,-2 -97,-11 2,-6 6,-6 14,-12l74 -52c12,-9 38,-23 13,-42 -3,-2 -14,-6 -20,-6 -16,0 -32,2 -49,2 -16,0 -60,-1 -73,2 -11,2 -12,3 -20,7l0 0 0 0zm0 0l0 0 0 0z"/>
  </g>
  <g>
   <path id="path30" class="fil1" d="M1068 784c7,0 80,-1 87,1 -2,4 -1,4 -6,8l-19 14c0,1 -1,1 -2,2l-33 24c-11,9 -56,38 -61,48 -7,14 13,23 26,23l128 -8c11,1 15,1 22,-4 2,-12 -2,-18 -8,-22 -16,-8 -65,-3 -91,-3 2,-7 14,-13 20,-17l55 -39c22,-16 50,-28 30,-47 -15,-15 -48,-9 -77,-9 -20,0 -71,-2 -85,7 -6,4 -8,9 -4,16 4,6 12,6 18,6l0 0 0 0zm0 0l0 0 0 0z"/>
  </g>
  <path id="path32" class="fil1" d="M826 463l0 100c0,15 -5,46 8,52 8,3 21,0 29,-1 29,-3 17,-21 16,-70 0,-17 -5,-88 5,-104 13,-23 44,-24 68,-28 4,0 8,-1 12,-2 5,0 49,0 22,-25 -7,-6 -23,-12 -34,-13 -18,-1 -38,4 -54,8 -34,9 -34,-10 -50,-10 -7,1 -18,6 -22,9 -14,10 0,62 0,84l0 0z"/>
  <g>
   <path id="path34" class="fil1" d="M1335 903c9,0 23,-5 30,-5 3,5 0,8 6,11 3,2 10,1 14,1 14,1 21,3 23,-10 2,-14 -1,-49 -1,-68 0,-44 -12,-67 -46,-83 -22,-9 -56,-9 -78,-2 -12,4 -46,21 -52,31 -9,16 15,14 24,10 5,-2 9,-4 14,-6 5,-2 10,-4 16,-6 25,-9 43,-15 65,-1 6,4 20,15 16,26 -3,8 -22,9 -31,9 -28,2 -73,12 -91,35 -15,20 -13,40 15,51 22,9 50,7 76,7l0 0 0 0zm-9 -27c27,0 47,4 41,-28 -1,-6 -3,-8 -7,-10 -14,-6 -41,-4 -54,3 -10,6 -22,11 -29,21 -13,19 25,14 49,14l0 0 0 0zm0 0l0 0 0 0z"/>
  </g>
  <path id="path36" class="fil1" d="M653 943c3,-25 -11,-39 16,-51 7,-3 33,-8 53,-16 21,-9 45,-20 53,-42 15,-45 -24,-76 -59,-77 -41,-2 -42,1 -70,-13 -8,-4 -17,0 -24,7 -5,5 -3,11 -3,20 0,15 1,30 1,46l-1 69c-1,33 -19,69 20,65 7,-1 10,-5 14,-8l0 0 0 0zm4 -130l0 44c3,10 11,6 28,3 4,-1 18,-6 22,-8 11,-5 27,-15 33,-25 9,-16 5,-31 -8,-41 -10,-6 -33,-11 -48,-10l-2 0c-11,0 -17,0 -22,9 -2,4 -3,22 -3,28l0 0z"/>
  <g>
   <path id="path38" class="fil1" d="M1479 500c0,35 6,50 23,70 15,18 35,30 57,38 59,21 101,14 159,-4 7,-2 10,-3 16,-6 24,-12 2,-34 -18,-31 -28,5 -50,13 -83,12 -56,-2 -111,-26 -97,-90 3,-17 20,-50 31,-62 19,-22 50,-19 75,-14 21,4 17,4 34,11 12,6 42,19 54,5 1,-1 2,-1 2,-8 0,-5 0,-7 -2,-10 -3,-5 -6,-8 -13,-10 -6,-3 -10,-5 -17,-7 -42,-17 -107,-38 -153,-15 -23,11 -37,22 -50,45 -12,20 -18,46 -18,76l0 0 0 0zm0 0l0 0 0 0z"/>
  </g>
  <g>
   <path id="path40" class="fil1" d="M297 512c0,-22 2,-23 6,-41 2,-6 4,-10 7,-16l8 -15c11,-19 29,-30 59,-30 9,0 46,7 53,11 5,2 9,5 14,7 12,4 20,8 35,7 15,-1 19,-16 11,-26 -13,-18 -99,-40 -130,-40 -27,0 -36,2 -59,13 -24,11 -46,41 -53,67l-6 25c-9,45 5,84 36,110 46,40 120,45 179,26 4,-1 6,-2 12,-3 63,-11 30,-44 9,-40 -26,6 -35,9 -64,11 -23,2 -48,-1 -67,-7 -5,-2 -7,-3 -12,-5 -7,-3 -13,-7 -19,-12 -13,-10 -19,-20 -19,-42l0 0 0 0zm0 0l0 0 0 0z"/>
  </g>
  <g>
   <path id="path42" class="fil1" d="M635 606l46 0c17,-1 28,-8 36,-8 6,15 -3,20 33,20 28,0 29,-4 29,-34l-2 -78c0,-48 -11,-83 -41,-108 -29,-24 -67,-28 -104,-25 -29,1 -60,17 -84,29 -4,2 -6,5 -11,7 -7,4 -18,10 -18,21 -1,25 39,7 50,2 8,-3 19,-7 27,-11 11,-5 18,-5 29,-9 63,-20 99,29 93,45 -6,16 -42,13 -60,15 -20,2 -45,8 -61,14 -9,4 -17,7 -26,12 -4,2 -8,4 -11,7 -11,9 -18,9 -27,29 -9,18 -12,38 8,53 22,16 66,19 94,19l0 0 0 0zm-24 -38l70 -1c14,0 25,1 34,-7 8,-7 7,-20 4,-33 -3,-15 -7,-15 -22,-18 -10,-2 -25,-4 -38,-2 -18,3 -43,14 -57,25 -7,5 -17,12 -19,22 -4,16 16,14 28,14l0 0 0 0zm0 0l0 0 0 0z"/>
  </g>
  <g>
   <path id="path44" class="fil1" d="M1133 268c-9,5 -7,5 -7,31l0 115c0,51 1,103 0,154 0,25 -4,51 23,52 38,3 68,-2 103,-12 9,-3 19,-5 29,-9 45,-19 95,-43 95,-96 0,-34 -12,-56 -41,-74 -5,-4 -21,-11 -26,-13l-60 -15c-12,-2 -21,-5 -32,-7 -69,-7 -30,-37 -33,-103 0,-14 -6,-18 -17,-21 -8,-2 -26,-6 -34,-2l0 0 0 0zm42 238c0,18 -2,60 12,70 9,7 17,5 28,2 12,-2 20,-3 30,-7 29,-12 40,-13 67,-42 7,-8 11,-12 15,-23 14,-42 -51,-63 -77,-65 -19,-1 -48,-9 -64,2 -15,10 -11,41 -11,63l0 0zm0 0l0 0 0 0z"/>
  </g>
 </g>
</svg>
